<svg id="visual" viewBox="0 0 960 540" width="960" height="540" xmlns="http://www.w3.org/2000/svg" xmlns:xlink="http://www.w3.org/1999/xlink" version="1.1"><rect x="0" y="0" width="960" height="540" fill="#001220"></rect><defs><linearGradient id="grad1_0" x1="43.8%" y1="100%" x2="100%" y2="0%"><stop offset="14.444444444444446%" stop-color="#001220" stop-opacity="1"></stop><stop offset="85.55555555555554%" stop-color="#001220" stop-opacity="1"></stop></linearGradient></defs><defs><linearGradient id="grad2_0" x1="0%" y1="100%" x2="56.3%" y2="0%"><stop offset="14.444444444444446%" stop-color="#001220" stop-opacity="1"></stop><stop offset="85.55555555555554%" stop-color="#001220" stop-opacity="1"></stop></linearGradient></defs><g transform="translate(960, 540)"><path d="M-351 0C-336.1 -45.9 -321.1 -91.8 -293.8 -121.7C-266.5 -151.6 -226.8 -165.5 -201.5 -201.5C-176.3 -237.5 -165.5 -295.7 -134.3 -324.3C-103.1 -352.9 -51.6 -351.9 0 -351L0 0Z" fill="#FBAE3C"></path></g><g transform="translate(0, 0)"><path d="M351 0C352.9 52.4 354.7 104.7 324.3 134.3C293.9 163.9 231.1 170.8 194.5 194.5C157.8 218.1 147.1 258.4 119 287.3C90.9 316.2 45.5 333.6 0 351L0 0Z" fill="#FBAE3C"></path></g></svg>