<svg id="visual" viewBox="0 0 960 540" width="960" height="540" xmlns="http://www.w3.org/2000/svg" xmlns:xlink="http://www.w3.org/1999/xlink" version="1.1"><rect x="0" y="0" width="960" height="540" fill="#001220"></rect><path d="M0 315L26.7 328.8C53.3 342.7 106.7 370.3 160 372C213.3 373.7 266.7 349.3 320 343.8C373.3 338.3 426.7 351.7 480 361.7C533.3 371.7 586.7 378.3 640 371C693.3 363.7 746.7 342.3 800 328.7C853.3 315 906.7 309 933.3 306L960 303L960 541L933.3 541C906.7 541 853.3 541 800 541C746.7 541 693.3 541 640 541C586.7 541 533.3 541 480 541C426.7 541 373.3 541 320 541C266.7 541 213.3 541 160 541C106.7 541 53.3 541 26.7 541L0 541Z" fill="#c62368"></path><path d="M0 386L26.7 399.7C53.3 413.3 106.7 440.7 160 441.5C213.3 442.3 266.7 416.7 320 403C373.3 389.3 426.7 387.7 480 386.5C533.3 385.3 586.7 384.7 640 389.8C693.3 395 746.7 406 800 405.8C853.3 405.7 906.7 394.3 933.3 388.7L960 383L960 541L933.3 541C906.7 541 853.3 541 800 541C746.7 541 693.3 541 640 541C586.7 541 533.3 541 480 541C426.7 541 373.3 541 320 541C266.7 541 213.3 541 160 541C106.7 541 53.3 541 26.7 541L0 541Z" fill="#e34c67"></path><path d="M0 506L26.7 496.3C53.3 486.7 106.7 467.3 160 467.5C213.3 467.7 266.7 487.3 320 488.2C373.3 489 426.7 471 480 467.3C533.3 463.7 586.7 474.3 640 472C693.3 469.7 746.7 454.3 800 459.7C853.3 465 906.7 491 933.3 504L960 517L960 541L933.3 541C906.7 541 853.3 541 800 541C746.7 541 693.3 541 640 541C586.7 541 533.3 541 480 541C426.7 541 373.3 541 320 541C266.7 541 213.3 541 160 541C106.7 541 53.3 541 26.7 541L0 541Z" fill="#fa7268"></path></svg>