<svg id="visual" viewBox="0 0 960 540" width="960" height="540" xmlns="http://www.w3.org/2000/svg" xmlns:xlink="http://www.w3.org/1999/xlink" version="1.1"><rect x="0" y="0" width="960" height="540" fill="#681716"></rect><path d="M0 200L240 222L480 247L720 263L960 189L960 541L720 541L480 541L240 541L0 541Z" fill="#681716"></path><path d="M0 307L240 248L480 300L720 291L960 248L960 541L720 541L480 541L240 541L0 541Z" fill="#83251a"></path><path d="M0 354L240 328L480 351L720 314L960 356L960 541L720 541L480 541L240 541L0 541Z" fill="#9f351d"></path><path d="M0 385L240 422L480 412L720 372L960 368L960 541L720 541L480 541L240 541L0 541Z" fill="#b9461d"></path><path d="M0 457L240 465L480 430L720 422L960 442L960 541L720 541L480 541L240 541L0 541Z" fill="#d4591a"></path><path d="M0 455L240 516L480 455L720 457L960 516L960 541L720 541L480 541L240 541L0 541Z" fill="#ed6d12"></path></svg>